<?xml version="1.0" encoding="utf-8"?>
<!-- Generator: Adobe Illustrator 26.2.1, SVG Export Plug-In . SVG Version: 6.00 Build 0)  -->
<svg version="1.1" id="Layer_1" xmlns="http://www.w3.org/2000/svg" xmlns:xlink="http://www.w3.org/1999/xlink" x="0px" y="0px"
	 viewBox="0 0 425.2 425.2" style="enable-background:new 0 0 425.2 425.2;" xml:space="preserve">
<g>
	<path d="M194.4,228.1c0,1.1,0,2.3,0,3.4c0,20.7,0,41.5,0,62.2c0,0.9,0,1.7,0,2.6c-0.3,3.8-1.6,5.2-5.5,5.2c-7.7,0.1-15.4,0-23.1,0
		c-6.9,0-13.9,0-20.8,0c-5.6,0-7-1.4-7-7c0-21.3,0-42.6,0-64c0.1-51,0.3-102.1,0.5-153.1c0-3,0-6.1,0-9.6c-1.5,0.7-2.5,1.2-3.5,1.7
		c-44,24.8-71.9,61.9-81.1,111.5c-10.9,58.6,5.8,109.2,49,150.4c23.6,22.5,52.1,35.7,84.4,40.7c23.6,3.7,46.9,3.2,69.8-4
		c5.9-1.9,10.2-0.7,14.1,4.4c6.8,8.9,14.1,17.4,21.2,26c0.4,0.5,0.9,1,1.2,1.6c2.2,3.1,1.7,5.3-1.9,6.5c-10.5,3.5-20.9,7.5-31.7,9.9
		c-46.2,10.5-91.6,6.6-134.4-13.5C59.8,372.2,18.8,320.4,6.2,248.9C-14.4,131.4,61.7,33.8,160.4,8.6c8.8-2.3,17.9-3.6,27-5.1
		c5.7-0.9,7,0.5,7,6.4c0,66.3,0,132.7,0,199c0.3,0.4,0.5,0.7,0.7,1.1l0,0c0.9-1,1.9-2,2.8-3c14.1-18.4,28.2-36.7,42.2-55.2
		c3.9-5.2,8.4-7.5,15-7.4c16.6,0.3,33.2,0.1,49.7,0.2c0.7,0,1.4,0.1,2.1,0.3c1.9,0.4,2.9,2.4,2.2,4.2c-0.3,0.8-0.6,1.5-1.1,2.1
		c-16.2,21.3-32.6,42.6-48.9,63.8c-3.1,4-3.1,4.3,0,8.2c24.8,30.3,49.5,60.7,74.3,91c2.6,3.1,3,3.1,5.6,0c16.2-19.5,25.9-42,32-66.4
		c3.5-14,4-28.1,3.4-42.2c-1.9-47-20.7-86.1-56.2-116.9C295.6,69,269.2,56.6,239.4,52c-2.9-0.5-5.9-1.1-8.8-1.6
		c-2.6-0.5-4.4-2.8-4.4-5.4c0-12.5-0.1-25,0-37.5c0-3.5,1.8-4.8,5.5-4.6c10.6,0.5,20.8,2.9,31,5.3c47,11.3,85.1,36.5,115.2,74.2
		c24.7,30.9,39.6,66.1,43.3,105.3c7.6,81.3-21.6,146.8-87,195.9c-0.8,0.6-1.7,1.2-2.7,1.8c-3.5,1.9-5.7,1.7-8.4-1.4
		c-4.3-5-8.4-10.1-12.5-15.2c-37.2-45.5-74.5-91.1-111.7-136.6c-1.2-1.4-2.4-2.9-3.5-4.3C194.8,227.9,194.8,227.9,194.4,228.1z"/>
</g>
</svg>
